<svg width="90" height="94" viewBox="0 0 90 94" fill="none" xmlns="http://www.w3.org/2000/svg">
<path d="M11.5172 41.7104H78.3168L85.9949 56.2989H3.83911L11.5172 41.7104Z" fill="#3A1E12"/>
<rect x="13.5818" y="42.0637" width="19.2425" height="3.2714" rx="1.6357" transform="rotate(115.649 13.5818 42.0637)" fill="#D68914"/>
<rect x="78.9527" y="40.7708" width="19.3189" height="3.43822" rx="1.71911" transform="rotate(60 78.9527 40.7708)" fill="#D68914"/>
<path d="M79.0845 41.7104L10.7494 41.7104L3.07125 21.7474L86.7626 21.7474L79.0845 41.7104Z" fill="#3A1E12"/>
<rect x="4.59076" y="19.4438" width="25.5478" height="3.2714" rx="1.6357" transform="rotate(69.0477 4.59076 19.4438)" fill="#B16E08"/>
<rect x="88.3543" y="20.5994" width="26.2806" height="3.2714" rx="1.6357" transform="rotate(110.679 88.3543 20.5994)" fill="#B16E08"/>
<path d="M53.987 42.0369C53.987 43.6127 50.7223 44.8902 46.6952 44.8902C42.668 44.8902 39.4034 43.6127 39.4034 42.0369C39.4034 37.9154 42.668 39.1835 46.6952 39.1835C50.7223 39.1835 53.987 37.9154 53.987 42.0369Z" fill="#AF8200"/>
<ellipse cx="46.6952" cy="40.7686" rx="7.2918" ry="2.85331" fill="url(#paint0_linear_65_586)"/>
<path d="M53.987 39.5002C53.987 41.0761 50.7223 42.3535 46.6952 42.3535C42.668 42.3535 39.4034 41.0761 39.4034 39.5002C39.4034 35.3788 42.668 36.6469 46.6952 36.6469C50.7223 36.6469 53.987 35.3788 53.987 39.5002Z" fill="#AF8200"/>
<ellipse cx="46.6952" cy="38.2322" rx="7.2918" ry="2.85331" fill="url(#paint1_linear_65_586)"/>
<path d="M53.987 36.9641C53.987 38.5399 50.7223 39.8174 46.6952 39.8174C42.668 39.8174 39.4034 38.5399 39.4034 36.9641C39.4034 32.8427 42.668 34.1108 46.6952 34.1108C50.7223 34.1108 53.987 32.8427 53.987 36.9641Z" fill="#AF8200"/>
<ellipse cx="46.6952" cy="35.6963" rx="7.2918" ry="2.85331" fill="url(#paint2_linear_65_586)"/>
<path d="M53.987 34.4277C53.987 36.0036 50.7223 37.281 46.6952 37.281C42.668 37.281 39.4034 36.0036 39.4034 34.4277C39.4034 30.3063 42.668 31.5744 46.6952 31.5744C50.7223 31.5744 53.987 30.3063 53.987 34.4277Z" fill="#AF8200"/>
<ellipse cx="46.6952" cy="33.1595" rx="7.2918" ry="2.85331" fill="url(#paint3_linear_65_586)"/>
<path d="M53.987 31.8918C53.987 33.4677 50.7223 34.7451 46.6952 34.7451C42.668 34.7451 39.4034 33.4677 39.4034 31.8918C39.4034 27.7704 42.668 29.0385 46.6952 29.0385C50.7223 29.0385 53.987 27.7704 53.987 31.8918Z" fill="#AF8200"/>
<ellipse cx="46.6952" cy="30.6236" rx="7.2918" ry="2.85331" fill="url(#paint4_linear_65_586)"/>
<path d="M77.4476 42.0366C77.4476 43.6125 74.1829 44.8899 70.1558 44.8899C66.1286 44.8899 62.864 43.6125 62.864 42.0366C62.864 37.9152 66.1286 39.1833 70.1558 39.1833C74.1829 39.1833 77.4476 37.9152 77.4476 42.0366Z" fill="#AF8200"/>
<ellipse cx="70.1558" cy="40.7684" rx="7.2918" ry="2.85331" fill="url(#paint5_linear_65_586)"/>
<path d="M77.4476 39.5C77.4476 41.0758 74.1829 42.3533 70.1558 42.3533C66.1286 42.3533 62.864 41.0758 62.864 39.5C62.864 35.3786 66.1286 36.6467 70.1558 36.6467C74.1829 36.6467 77.4476 35.3786 77.4476 39.5Z" fill="#AF8200"/>
<ellipse cx="70.1558" cy="38.232" rx="7.2918" ry="2.85331" fill="url(#paint6_linear_65_586)"/>
<path d="M77.4476 36.9639C77.4476 38.5397 74.1829 39.8172 70.1558 39.8172C66.1286 39.8172 62.864 38.5397 62.864 36.9639C62.864 32.8424 66.1286 34.1105 70.1558 34.1105C74.1829 34.1105 77.4476 32.8424 77.4476 36.9639Z" fill="#AF8200"/>
<ellipse cx="70.1558" cy="35.6961" rx="7.2918" ry="2.85331" fill="url(#paint7_linear_65_586)"/>
<path d="M77.4476 34.4275C77.4476 36.0033 74.1829 37.2808 70.1558 37.2808C66.1286 37.2808 62.864 36.0033 62.864 34.4275C62.864 30.3061 66.1286 31.5742 70.1558 31.5742C74.1829 31.5742 77.4476 30.3061 77.4476 34.4275Z" fill="#AF8200"/>
<ellipse cx="70.1557" cy="33.1595" rx="7.2918" ry="2.85331" fill="url(#paint8_linear_65_586)"/>
<path d="M66.0343 47.1091C66.0343 48.685 62.7696 49.9624 58.7425 49.9624C54.7153 49.9624 51.4507 48.685 51.4507 47.1091C51.4507 42.9877 54.7153 44.2558 58.7425 44.2558C62.7696 44.2558 66.0343 42.9877 66.0343 47.1091Z" fill="#AF8200"/>
<ellipse cx="58.7425" cy="45.8409" rx="7.2918" ry="2.85331" fill="url(#paint9_linear_65_586)"/>
<path d="M66.0343 44.5727C66.0343 46.1486 62.7696 47.4261 58.7425 47.4261C54.7153 47.4261 51.4507 46.1486 51.4507 44.5727C51.4507 40.4513 54.7153 41.7194 58.7425 41.7194C62.7696 41.7194 66.0343 40.4513 66.0343 44.5727Z" fill="#AF8200"/>
<ellipse cx="58.7425" cy="43.3047" rx="7.2918" ry="2.85331" fill="url(#paint10_linear_65_586)"/>
<path d="M66.0343 42.0366C66.0343 43.6125 62.7696 44.8899 58.7425 44.8899C54.7153 44.8899 51.4507 43.6125 51.4507 42.0366C51.4507 37.9152 54.7153 39.1833 58.7425 39.1833C62.7696 39.1833 66.0343 37.9152 66.0343 42.0366Z" fill="#AF8200"/>
<ellipse cx="58.7425" cy="40.7684" rx="7.2918" ry="2.85331" fill="url(#paint11_linear_65_586)"/>
<path d="M66.0343 39.5C66.0343 41.0758 62.7696 42.3533 58.7425 42.3533C54.7153 42.3533 51.4507 41.0758 51.4507 39.5C51.4507 35.3786 54.7153 36.6467 58.7425 36.6467C62.7696 36.6467 66.0343 35.3786 66.0343 39.5Z" fill="#AF8200"/>
<ellipse cx="58.7425" cy="38.232" rx="7.2918" ry="2.85331" fill="url(#paint12_linear_65_586)"/>
<path d="M66.0343 36.9639C66.0343 38.5397 62.7696 39.8172 58.7425 39.8172C54.7153 39.8172 51.4507 38.5397 51.4507 36.9639C51.4507 32.8424 54.7153 34.1105 58.7425 34.1105C62.7696 34.1105 66.0343 32.8424 66.0343 36.9639Z" fill="#AF8200"/>
<ellipse cx="58.7425" cy="35.6961" rx="7.2918" ry="2.85331" fill="url(#paint13_linear_65_586)"/>
<path d="M66.0343 34.4275C66.0343 36.0033 62.7696 37.2808 58.7425 37.2808C54.7153 37.2808 51.4507 36.0033 51.4507 34.4275C51.4507 30.3061 54.7153 31.5742 58.7425 31.5742C62.7696 31.5742 66.0343 30.3061 66.0343 34.4275Z" fill="#AF8200"/>
<ellipse cx="58.7425" cy="33.1595" rx="7.2918" ry="2.85331" fill="url(#paint14_linear_65_586)"/>
<path d="M66.0343 31.8916C66.0343 33.4674 62.7696 34.7449 58.7425 34.7449C54.7153 34.7449 51.4507 33.4674 51.4507 31.8916C51.4507 27.7702 54.7153 29.0383 58.7425 29.0383C62.7696 29.0383 66.0343 27.7702 66.0343 31.8916Z" fill="#AF8200"/>
<ellipse cx="58.7425" cy="30.6236" rx="7.2918" ry="2.85331" fill="url(#paint15_linear_65_586)"/>
<path d="M66.0343 29.355C66.0343 30.9308 62.7696 32.2083 58.7425 32.2083C54.7153 32.2083 51.4507 30.9308 51.4507 29.355C51.4507 25.2335 54.7153 26.5017 58.7425 26.5017C62.7696 26.5017 66.0343 25.2335 66.0343 29.355Z" fill="#AF8200"/>
<ellipse cx="58.7425" cy="28.087" rx="7.2918" ry="2.85331" fill="url(#paint16_linear_65_586)"/>
<path d="M28.2442 44.7934C28.2442 46.3911 24.9342 47.6864 20.8511 47.6864C16.768 47.6864 13.4579 46.3911 13.4579 44.7934C13.4579 40.6147 16.768 41.9005 20.8511 41.9005C24.9342 41.9005 28.2442 40.6147 28.2442 44.7934Z" fill="#AF8200"/>
<ellipse cx="20.8511" cy="43.5077" rx="7.39311" ry="2.89296" fill="url(#paint17_linear_65_586)"/>
<path d="M28.2442 42.2219C28.2442 43.8196 24.9342 45.1148 20.8511 45.1148C16.768 45.1148 13.4579 43.8196 13.4579 42.2219C13.4579 38.0432 16.768 39.3289 20.8511 39.3289C24.9342 39.3289 28.2442 38.0432 28.2442 42.2219Z" fill="#AF8200"/>
<ellipse cx="20.8511" cy="40.9362" rx="7.39311" ry="2.89296" fill="url(#paint18_linear_65_586)"/>
<path d="M28.2442 39.6503C28.2442 41.2481 24.9342 42.5433 20.8511 42.5433C16.768 42.5433 13.4579 41.2481 13.4579 39.6503C13.4579 35.4717 16.768 36.7574 20.8511 36.7574C24.9342 36.7574 28.2442 35.4717 28.2442 39.6503Z" fill="#AF8200"/>
<ellipse cx="20.8511" cy="38.3644" rx="7.39311" ry="2.89296" fill="url(#paint19_linear_65_586)"/>
<path d="M28.2442 37.0791C28.2442 38.6768 24.9342 39.972 20.8511 39.972C16.768 39.972 13.4579 38.6768 13.4579 37.0791C13.4579 32.9004 16.768 34.1861 20.8511 34.1861C24.9342 34.1861 28.2442 32.9004 28.2442 37.0791Z" fill="#AF8200"/>
<ellipse cx="20.8511" cy="35.7931" rx="7.39311" ry="2.89296" fill="url(#paint20_linear_65_586)"/>
<path d="M28.2442 34.5075C28.2442 36.1053 24.9342 37.4005 20.8511 37.4005C16.768 37.4005 13.4579 36.1053 13.4579 34.5075C13.4579 30.3288 16.768 31.6146 20.8511 31.6146C24.9342 31.6146 28.2442 30.3288 28.2442 34.5075Z" fill="#AF8200"/>
<ellipse cx="20.8511" cy="33.2218" rx="7.39311" ry="2.89296" fill="url(#paint21_linear_65_586)"/>
<path d="M52.0308 44.7934C52.0308 46.3911 48.7207 47.6864 44.6376 47.6864C40.5545 47.6864 37.2445 46.3911 37.2445 44.7934C37.2445 40.6147 40.5545 41.9005 44.6376 41.9005C48.7207 41.9005 52.0308 40.6147 52.0308 44.7934Z" fill="#AF8200"/>
<ellipse cx="44.6376" cy="43.5075" rx="7.39311" ry="2.89296" fill="url(#paint22_linear_65_586)"/>
<path d="M52.0308 42.2219C52.0308 43.8196 48.7207 45.1148 44.6376 45.1148C40.5545 45.1148 37.2445 43.8196 37.2445 42.2219C37.2445 38.0432 40.5545 39.3289 44.6376 39.3289C48.7207 39.3289 52.0308 38.0432 52.0308 42.2219Z" fill="#AF8200"/>
<ellipse cx="44.6376" cy="40.9362" rx="7.39311" ry="2.89296" fill="url(#paint23_linear_65_586)"/>
<path d="M52.0308 39.6501C52.0308 41.2478 48.7207 42.5431 44.6376 42.5431C40.5545 42.5431 37.2445 41.2478 37.2445 39.6501C37.2445 35.4714 40.5545 36.7571 44.6376 36.7571C48.7207 36.7571 52.0308 35.4714 52.0308 39.6501Z" fill="#AF8200"/>
<ellipse cx="44.6376" cy="38.3644" rx="7.39311" ry="2.89296" fill="url(#paint24_linear_65_586)"/>
<path d="M52.0308 37.0788C52.0308 38.6765 48.7207 39.9718 44.6376 39.9718C40.5545 39.9718 37.2445 38.6765 37.2445 37.0788C37.2445 32.9001 40.5545 34.1859 44.6376 34.1859C48.7207 34.1859 52.0308 32.9001 52.0308 37.0788Z" fill="#AF8200"/>
<ellipse cx="44.6376" cy="35.7931" rx="7.39311" ry="2.89296" fill="url(#paint25_linear_65_586)"/>
<path d="M40.4589 49.9362C40.4589 51.534 37.1489 52.8292 33.0658 52.8292C28.9827 52.8292 25.6727 51.534 25.6727 49.9362C25.6727 45.7575 28.9827 47.0433 33.0658 47.0433C37.1489 47.0433 40.4589 45.7575 40.4589 49.9362Z" fill="#AF8200"/>
<ellipse cx="33.0658" cy="48.6508" rx="7.39311" ry="2.89296" fill="url(#paint26_linear_65_586)"/>
<path d="M40.4589 47.3652C40.4589 48.9629 37.1489 50.2581 33.0658 50.2581C28.9827 50.2581 25.6727 48.9629 25.6727 47.3652C25.6727 43.1865 28.9827 44.4722 33.0658 44.4722C37.1489 44.4722 40.4589 43.1865 40.4589 47.3652Z" fill="#AF8200"/>
<ellipse cx="33.0658" cy="46.0792" rx="7.39311" ry="2.89296" fill="url(#paint27_linear_65_586)"/>
<path d="M40.4589 44.7934C40.4589 46.3911 37.1489 47.6864 33.0658 47.6864C28.9827 47.6864 25.6727 46.3911 25.6727 44.7934C25.6727 40.6147 28.9827 41.9005 33.0658 41.9005C37.1489 41.9005 40.4589 40.6147 40.4589 44.7934Z" fill="#AF8200"/>
<ellipse cx="33.0658" cy="43.5077" rx="7.39311" ry="2.89296" fill="url(#paint28_linear_65_586)"/>
<path d="M40.4589 42.2219C40.4589 43.8196 37.1489 45.1148 33.0658 45.1148C28.9827 45.1148 25.6727 43.8196 25.6727 42.2219C25.6727 38.0432 28.9827 39.3289 33.0658 39.3289C37.1489 39.3289 40.4589 38.0432 40.4589 42.2219Z" fill="#AF8200"/>
<ellipse cx="33.0658" cy="40.9362" rx="7.39311" ry="2.89296" fill="url(#paint29_linear_65_586)"/>
<path d="M40.4589 39.6503C40.4589 41.2481 37.1489 42.5433 33.0658 42.5433C28.9827 42.5433 25.6727 41.2481 25.6727 39.6503C25.6727 35.4717 28.9827 36.7574 33.0658 36.7574C37.1489 36.7574 40.4589 35.4717 40.4589 39.6503Z" fill="#AF8200"/>
<ellipse cx="33.0658" cy="38.3644" rx="7.39311" ry="2.89296" fill="url(#paint30_linear_65_586)"/>
<path d="M40.4589 37.0791C40.4589 38.6768 37.1489 39.972 33.0658 39.972C28.9827 39.972 25.6727 38.6768 25.6727 37.0791C25.6727 32.9004 28.9827 34.1861 33.0658 34.1861C37.1489 34.1861 40.4589 32.9004 40.4589 37.0791Z" fill="#AF8200"/>
<ellipse cx="33.0658" cy="35.7931" rx="7.39311" ry="2.89296" fill="url(#paint31_linear_65_586)"/>
<path d="M40.4589 34.5075C40.4589 36.1053 37.1489 37.4005 33.0658 37.4005C28.9827 37.4005 25.6727 36.1053 25.6727 34.5075C25.6727 30.3288 28.9827 31.6146 33.0658 31.6146C37.1489 31.6146 40.4589 30.3288 40.4589 34.5075Z" fill="#AF8200"/>
<ellipse cx="33.0658" cy="33.2218" rx="7.39311" ry="2.89296" fill="url(#paint32_linear_65_586)"/>
<path d="M40.4589 31.9357C40.4589 33.5335 37.1489 34.8287 33.0658 34.8287C28.9827 34.8287 25.6727 33.5335 25.6727 31.9357C25.6727 27.7571 28.9827 29.0428 33.0658 29.0428C37.1489 29.0428 40.4589 27.7571 40.4589 31.9357Z" fill="#AF8200"/>
<ellipse cx="33.0658" cy="30.65" rx="7.39311" ry="2.89296" fill="url(#paint33_linear_65_586)"/>
<path d="M26.477 56.4353C26.477 58.3007 22.6125 59.8129 17.8454 59.8129C13.0782 59.8129 9.21375 58.3007 9.21375 56.4353C9.21375 51.5566 13.0782 53.0577 17.8454 53.0577C22.6125 53.0577 26.477 51.5566 26.477 56.4353Z" fill="#AF8200"/>
<ellipse cx="17.8454" cy="54.9342" rx="8.63161" ry="3.37759" fill="url(#paint34_linear_65_586)"/>
<path d="M26.477 53.4328C26.477 55.2982 22.6125 56.8104 17.8454 56.8104C13.0782 56.8104 9.21375 55.2982 9.21375 53.4328C9.21375 48.5541 13.0782 50.0552 17.8454 50.0552C22.6125 50.0552 26.477 48.5541 26.477 53.4328Z" fill="#AF8200"/>
<ellipse cx="17.8454" cy="51.932" rx="8.63161" ry="3.37759" fill="url(#paint35_linear_65_586)"/>
<path d="M26.477 50.4309C26.477 52.2963 22.6125 53.8085 17.8454 53.8085C13.0782 53.8085 9.21375 52.2963 9.21375 50.4309C9.21375 45.5522 13.0782 47.0533 17.8454 47.0533C22.6125 47.0533 26.477 45.5522 26.477 50.4309Z" fill="#AF8200"/>
<ellipse cx="17.8454" cy="48.9298" rx="8.63161" ry="3.37759" fill="url(#paint36_linear_65_586)"/>
<path d="M26.477 47.4284C26.477 49.2938 22.6125 50.806 17.8454 50.806C13.0782 50.806 9.21375 49.2938 9.21375 47.4284C9.21375 42.5497 13.0782 44.0508 17.8454 44.0508C22.6125 44.0508 26.477 42.5497 26.477 47.4284Z" fill="#AF8200"/>
<ellipse cx="17.8454" cy="45.9274" rx="8.63161" ry="3.37759" fill="url(#paint37_linear_65_586)"/>
<path d="M26.477 44.4265C26.477 46.2919 22.6125 47.8041 17.8454 47.8041C13.0782 47.8041 9.21375 46.2919 9.21375 44.4265C9.21375 39.5478 13.0782 41.0489 17.8454 41.0489C22.6125 41.0489 26.477 39.5478 26.477 44.4265Z" fill="#AF8200"/>
<ellipse cx="17.8454" cy="42.9252" rx="8.63161" ry="3.37759" fill="url(#paint38_linear_65_586)"/>
<path d="M55.9305 56.4353C55.9305 58.3007 52.066 59.8129 47.2989 59.8129C42.5318 59.8129 38.6673 58.3007 38.6673 56.4353C38.6673 51.5566 42.5318 53.0577 47.2989 53.0577C52.066 53.0577 55.9305 51.5566 55.9305 56.4353Z" fill="#AF8200"/>
<ellipse cx="47.2989" cy="54.9342" rx="8.63161" ry="3.37759" fill="url(#paint39_linear_65_586)"/>
<path d="M55.9305 53.4328C55.9305 55.2982 52.066 56.8104 47.2989 56.8104C42.5318 56.8104 38.6673 55.2982 38.6673 53.4328C38.6673 48.5541 42.5318 50.0552 47.2989 50.0552C52.066 50.0552 55.9305 48.5541 55.9305 53.4328Z" fill="#AF8200"/>
<ellipse cx="47.2989" cy="51.932" rx="8.63161" ry="3.37759" fill="url(#paint40_linear_65_586)"/>
<path d="M55.9305 50.4309C55.9305 52.2963 52.066 53.8085 47.2989 53.8085C42.5318 53.8085 38.6673 52.2963 38.6673 50.4309C38.6673 45.5522 42.5318 47.0533 47.2989 47.0533C52.066 47.0533 55.9305 45.5522 55.9305 50.4309Z" fill="#AF8200"/>
<ellipse cx="47.2989" cy="48.9298" rx="8.63161" ry="3.37759" fill="url(#paint41_linear_65_586)"/>
<path d="M55.9305 47.4284C55.9305 49.2938 52.066 50.806 47.2989 50.806C42.5318 50.806 38.6673 49.2938 38.6673 47.4284C38.6673 42.5497 42.5318 44.0508 47.2989 44.0508C52.066 44.0508 55.9305 42.5497 55.9305 47.4284Z" fill="#AF8200"/>
<ellipse cx="47.2989" cy="45.9274" rx="8.63161" ry="3.37759" fill="url(#paint42_linear_65_586)"/>
<path d="M42.4201 62.4402C42.4201 64.3055 38.5556 65.8177 33.7885 65.8177C29.0214 65.8177 25.1569 64.3055 25.1569 62.4402C25.1569 57.5615 29.0214 59.0626 33.7885 59.0626C38.5556 59.0626 42.4201 57.5615 42.4201 62.4402Z" fill="#AF8200"/>
<ellipse cx="33.7885" cy="60.9389" rx="8.63161" ry="3.37759" fill="url(#paint43_linear_65_586)"/>
<path d="M42.4201 59.4377C42.4201 61.3031 38.5556 62.8153 33.7885 62.8153C29.0214 62.8153 25.1569 61.3031 25.1569 59.4377C25.1569 54.559 29.0214 56.0601 33.7885 56.0601C38.5556 56.0601 42.4201 54.559 42.4201 59.4377Z" fill="#AF8200"/>
<ellipse cx="33.7885" cy="57.9367" rx="8.63161" ry="3.37759" fill="url(#paint44_linear_65_586)"/>
<path d="M42.4201 56.4353C42.4201 58.3007 38.5556 59.8129 33.7885 59.8129C29.0214 59.8129 25.1569 58.3007 25.1569 56.4353C25.1569 51.5566 29.0214 53.0577 33.7885 53.0577C38.5556 53.0577 42.4201 51.5566 42.4201 56.4353Z" fill="#AF8200"/>
<ellipse cx="33.7885" cy="54.9342" rx="8.63161" ry="3.37759" fill="url(#paint45_linear_65_586)"/>
<path d="M42.4201 53.4328C42.4201 55.2982 38.5556 56.8104 33.7885 56.8104C29.0214 56.8104 25.1569 55.2982 25.1569 53.4328C25.1569 48.5541 29.0214 50.0552 33.7885 50.0552C38.5556 50.0552 42.4201 48.5541 42.4201 53.4328Z" fill="#AF8200"/>
<ellipse cx="33.7885" cy="51.932" rx="8.63161" ry="3.37759" fill="url(#paint46_linear_65_586)"/>
<path d="M42.4201 50.4309C42.4201 52.2963 38.5556 53.8085 33.7885 53.8085C29.0214 53.8085 25.1569 52.2963 25.1569 50.4309C25.1569 45.5522 29.0214 47.0533 33.7885 47.0533C38.5556 47.0533 42.4201 45.5522 42.4201 50.4309Z" fill="#AF8200"/>
<ellipse cx="33.7885" cy="48.9298" rx="8.63161" ry="3.37759" fill="url(#paint47_linear_65_586)"/>
<path d="M42.4201 47.4284C42.4201 49.2938 38.5556 50.806 33.7885 50.806C29.0214 50.806 25.1569 49.2938 25.1569 47.4284C25.1569 42.5497 29.0214 44.0508 33.7885 44.0508C38.5556 44.0508 42.4201 42.5497 42.4201 47.4284Z" fill="#AF8200"/>
<ellipse cx="33.7885" cy="45.9274" rx="8.63161" ry="3.37759" fill="url(#paint48_linear_65_586)"/>
<path d="M42.4201 44.4265C42.4201 46.2919 38.5556 47.8041 33.7885 47.8041C29.0214 47.8041 25.1569 46.2919 25.1569 44.4265C25.1569 39.5478 29.0214 41.0489 33.7885 41.0489C38.5556 41.0489 42.4201 39.5478 42.4201 44.4265Z" fill="#AF8200"/>
<ellipse cx="33.7885" cy="42.9252" rx="8.63161" ry="3.37759" fill="url(#paint49_linear_65_586)"/>
<path d="M42.4201 41.424C42.4201 43.2894 38.5556 44.8016 33.7885 44.8016C29.0214 44.8016 25.1569 43.2894 25.1569 41.424C25.1569 36.5453 29.0214 38.0465 33.7885 38.0465C38.5556 38.0465 42.4201 36.5453 42.4201 41.424Z" fill="#AF8200"/>
<ellipse cx="33.7885" cy="39.9228" rx="8.63161" ry="3.37759" fill="url(#paint50_linear_65_586)"/>
<path d="M54.6379 54.6689C54.6379 56.4829 50.8799 57.9534 46.2442 57.9534C41.6085 57.9534 37.8505 56.4829 37.8505 54.6689C37.8505 49.9247 41.6085 51.3844 46.2442 51.3844C50.8799 51.3844 54.6379 49.9247 54.6379 54.6689Z" fill="#AF8200"/>
<ellipse cx="46.2442" cy="53.2093" rx="8.3937" ry="3.28449" fill="url(#paint51_linear_65_586)"/>
<path d="M54.6379 51.7495C54.6379 53.5635 50.8799 55.034 46.2442 55.034C41.6085 55.034 37.8505 53.5635 37.8505 51.7495C37.8505 47.0053 41.6085 48.465 46.2442 48.465C50.8799 48.465 54.6379 47.0053 54.6379 51.7495Z" fill="#AF8200"/>
<ellipse cx="46.2442" cy="50.2899" rx="8.3937" ry="3.28449" fill="url(#paint52_linear_65_586)"/>
<path d="M54.6379 48.8301C54.6379 50.644 50.8799 52.1146 46.2442 52.1146C41.6085 52.1146 37.8505 50.644 37.8505 48.8301C37.8505 44.0858 41.6085 45.5456 46.2442 45.5456C50.8799 45.5456 54.6379 44.0858 54.6379 48.8301Z" fill="#AF8200"/>
<ellipse cx="46.2442" cy="47.3702" rx="8.3937" ry="3.28449" fill="url(#paint53_linear_65_586)"/>
<path d="M54.6379 45.9106C54.6379 47.7246 50.8799 49.1951 46.2442 49.1951C41.6085 49.1951 37.8505 47.7246 37.8505 45.9106C37.8505 41.1664 41.6085 42.6261 46.2442 42.6261C50.8799 42.6261 54.6379 41.1664 54.6379 45.9106Z" fill="#AF8200"/>
<ellipse cx="46.2442" cy="44.4505" rx="8.3937" ry="3.28449" fill="url(#paint54_linear_65_586)"/>
<path d="M54.6379 42.991C54.6379 44.8049 50.8799 46.2754 46.2442 46.2754C41.6085 46.2754 37.8505 44.8049 37.8505 42.991C37.8505 38.2467 41.6085 39.7065 46.2442 39.7065C50.8799 39.7065 54.6379 38.2467 54.6379 42.991Z" fill="#AF8200"/>
<ellipse cx="46.2442" cy="41.5311" rx="8.3937" ry="3.28449" fill="url(#paint55_linear_65_586)"/>
<path d="M81.6438 54.6687C81.6438 56.4827 77.8858 57.9532 73.2501 57.9532C68.6144 57.9532 64.8564 56.4827 64.8564 54.6687C64.8564 49.9245 68.6144 51.3842 73.2501 51.3842C77.8858 51.3842 81.6438 49.9245 81.6438 54.6687Z" fill="#AF8200"/>
<ellipse cx="73.2501" cy="53.2091" rx="8.3937" ry="3.28449" fill="url(#paint56_linear_65_586)"/>
<path d="M81.6438 51.7493C81.6438 53.5632 77.8858 55.0337 73.2501 55.0337C68.6144 55.0337 64.8564 53.5632 64.8564 51.7493C64.8564 47.005 68.6144 48.4648 73.2501 48.4648C77.8858 48.4648 81.6438 47.005 81.6438 51.7493Z" fill="#AF8200"/>
<ellipse cx="73.2501" cy="50.2899" rx="8.3937" ry="3.28449" fill="url(#paint57_linear_65_586)"/>
<path d="M81.6438 48.8298C81.6438 50.6438 77.8858 52.1143 73.2501 52.1143C68.6144 52.1143 64.8564 50.6438 64.8564 48.8298C64.8564 44.0856 68.6144 45.5453 73.2501 45.5453C77.8858 45.5453 81.6438 44.0856 81.6438 48.8298Z" fill="#AF8200"/>
<ellipse cx="73.2501" cy="47.3699" rx="8.3937" ry="3.28449" fill="url(#paint58_linear_65_586)"/>
<path d="M81.6438 45.9104C81.6438 47.7244 77.8858 49.1949 73.2501 49.1949C68.6143 49.1949 64.8564 47.7244 64.8564 45.9104C64.8564 41.1662 68.6143 42.6259 73.2501 42.6259C77.8858 42.6259 81.6438 41.1662 81.6438 45.9104Z" fill="#AF8200"/>
<ellipse cx="73.25" cy="44.4505" rx="8.3937" ry="3.28449" fill="url(#paint59_linear_65_586)"/>
<path d="M68.5058 60.508C68.5058 62.322 64.7478 63.7925 60.1121 63.7925C55.4763 63.7925 51.7184 62.322 51.7184 60.508C51.7184 55.7638 55.4763 57.2236 60.1121 57.2236C64.7478 57.2236 68.5058 55.7638 68.5058 60.508Z" fill="#AF8200"/>
<ellipse cx="60.1121" cy="59.0482" rx="8.3937" ry="3.28449" fill="url(#paint60_linear_65_586)"/>
<path d="M68.5058 57.5886C68.5058 59.4026 64.7478 60.8731 60.1121 60.8731C55.4763 60.8731 51.7184 59.4026 51.7184 57.5886C51.7184 52.8444 55.4763 54.3041 60.1121 54.3041C64.7478 54.3041 68.5058 52.8444 68.5058 57.5886Z" fill="#AF8200"/>
<ellipse cx="60.1121" cy="56.1287" rx="8.3937" ry="3.28449" fill="url(#paint61_linear_65_586)"/>
<path d="M68.5058 54.6687C68.5058 56.4827 64.7478 57.9532 60.1121 57.9532C55.4763 57.9532 51.7184 56.4827 51.7184 54.6687C51.7184 49.9245 55.4763 51.3842 60.1121 51.3842C64.7478 51.3842 68.5058 49.9245 68.5058 54.6687Z" fill="#AF8200"/>
<ellipse cx="60.1121" cy="53.2091" rx="8.3937" ry="3.28449" fill="url(#paint62_linear_65_586)"/>
<path d="M68.5058 51.7493C68.5058 53.5632 64.7478 55.0337 60.1121 55.0337C55.4763 55.0337 51.7184 53.5632 51.7184 51.7493C51.7184 47.005 55.4763 48.4648 60.1121 48.4648C64.7478 48.4648 68.5058 47.005 68.5058 51.7493Z" fill="#AF8200"/>
<ellipse cx="60.1121" cy="50.2899" rx="8.3937" ry="3.28449" fill="url(#paint63_linear_65_586)"/>
<path d="M68.5058 48.8298C68.5058 50.6438 64.7478 52.1143 60.1121 52.1143C55.4763 52.1143 51.7184 50.6438 51.7184 48.8298C51.7184 44.0856 55.4763 45.5453 60.1121 45.5453C64.7478 45.5453 68.5058 44.0856 68.5058 48.8298Z" fill="#AF8200"/>
<ellipse cx="60.1121" cy="47.3699" rx="8.3937" ry="3.28449" fill="url(#paint64_linear_65_586)"/>
<path d="M68.5058 45.9104C68.5058 47.7244 64.7478 49.1949 60.1121 49.1949C55.4763 49.1949 51.7184 47.7244 51.7184 45.9104C51.7184 41.1662 55.4763 42.6259 60.1121 42.6259C64.7478 42.6259 68.5058 41.1662 68.5058 45.9104Z" fill="#AF8200"/>
<ellipse cx="60.1121" cy="44.4505" rx="8.3937" ry="3.28449" fill="url(#paint65_linear_65_586)"/>
<path d="M68.5058 42.991C68.5058 44.8049 64.7478 46.2754 60.1121 46.2754C55.4763 46.2754 51.7184 44.8049 51.7184 42.991C51.7184 38.2467 55.4763 39.7065 60.1121 39.7065C64.7478 39.7065 68.5058 38.2467 68.5058 42.991Z" fill="#AF8200"/>
<ellipse cx="60.1121" cy="41.5308" rx="8.3937" ry="3.28449" fill="url(#paint66_linear_65_586)"/>
<path d="M68.5058 40.0713C68.5058 41.8853 64.7478 43.3558 60.1121 43.3558C55.4763 43.3558 51.7184 41.8853 51.7184 40.0713C51.7184 35.3271 55.4763 36.7868 60.1121 36.7868C64.7478 36.7868 68.5058 35.3271 68.5058 40.0713Z" fill="#AF8200"/>
<ellipse cx="60.1121" cy="38.6114" rx="8.3937" ry="3.28449" fill="url(#paint67_linear_65_586)"/>
<path d="M36.3837 61.6128C36.3837 63.4782 32.5192 64.9903 27.7521 64.9903C22.985 64.9903 19.1205 63.4782 19.1205 61.6128C19.1205 56.7341 22.985 58.2352 27.7521 58.2352C32.5192 58.2352 36.3837 56.7341 36.3837 61.6128Z" fill="#AF8200"/>
<ellipse cx="27.7521" cy="60.1115" rx="8.63161" ry="3.37759" fill="url(#paint68_linear_65_586)"/>
<path d="M36.3837 58.6106C36.3837 60.476 32.5192 61.9882 27.7521 61.9882C22.985 61.9882 19.1205 60.476 19.1205 58.6106C19.1205 53.7319 22.985 55.233 27.7521 55.233C32.5192 55.233 36.3837 53.7319 36.3837 58.6106Z" fill="#AF8200"/>
<ellipse cx="27.7521" cy="57.1093" rx="8.63161" ry="3.37759" fill="url(#paint69_linear_65_586)"/>
<path d="M36.3837 55.6081C36.3837 57.4735 32.5192 58.9857 27.7521 58.9857C22.985 58.9857 19.1205 57.4735 19.1205 55.6081C19.1205 50.7294 22.985 52.2305 27.7521 52.2305C32.5192 52.2305 36.3837 50.7294 36.3837 55.6081Z" fill="#AF8200"/>
<ellipse cx="27.7521" cy="54.1068" rx="8.63161" ry="3.37759" fill="url(#paint70_linear_65_586)"/>
<path d="M36.3837 52.6057C36.3837 54.4711 32.5192 55.9833 27.7521 55.9833C22.985 55.9833 19.1205 54.4711 19.1205 52.6057C19.1205 47.727 22.985 49.2281 27.7521 49.2281C32.5192 49.2281 36.3837 47.727 36.3837 52.6057Z" fill="#AF8200"/>
<ellipse cx="27.7521" cy="51.1046" rx="8.63161" ry="3.37759" fill="url(#paint71_linear_65_586)"/>
<path d="M36.3837 49.6035C36.3837 51.4689 32.5192 52.9811 27.7521 52.9811C22.985 52.9811 19.1205 51.4689 19.1205 49.6035C19.1205 44.7248 22.985 46.2259 27.7521 46.2259C32.5192 46.2259 36.3837 44.7248 36.3837 49.6035Z" fill="#AF8200"/>
<ellipse cx="27.7521" cy="48.1024" rx="8.63161" ry="3.37759" fill="url(#paint72_linear_65_586)"/>
<path d="M64.155 61.6125C64.155 63.4779 60.2905 64.9901 55.5234 64.9901C50.7563 64.9901 46.8918 63.4779 46.8918 61.6125C46.8918 56.7338 50.7563 58.2349 55.5234 58.2349C60.2905 58.2349 64.155 56.7338 64.155 61.6125Z" fill="#AF8200"/>
<ellipse cx="55.5234" cy="60.1112" rx="8.63161" ry="3.37759" fill="url(#paint73_linear_65_586)"/>
<path d="M64.155 58.6103C64.155 60.4757 60.2905 61.9879 55.5234 61.9879C50.7563 61.9879 46.8918 60.4757 46.8918 58.6103C46.8918 53.7316 50.7563 55.2327 55.5234 55.2327C60.2905 55.2327 64.155 53.7316 64.155 58.6103Z" fill="#AF8200"/>
<ellipse cx="55.5234" cy="57.109" rx="8.63161" ry="3.37759" fill="url(#paint74_linear_65_586)"/>
<path d="M64.155 55.6079C64.155 57.4733 60.2905 58.9855 55.5234 58.9855C50.7563 58.9855 46.8918 57.4733 46.8918 55.6079C46.8918 50.7292 50.7563 52.2303 55.5234 52.2303C60.2905 52.2303 64.155 50.7292 64.155 55.6079Z" fill="#AF8200"/>
<ellipse cx="55.5234" cy="54.1066" rx="8.63161" ry="3.37759" fill="url(#paint75_linear_65_586)"/>
<path d="M64.155 52.6057C64.155 54.4711 60.2905 55.9833 55.5234 55.9833C50.7563 55.9833 46.8918 54.4711 46.8918 52.6057C46.8918 47.727 50.7563 49.2281 55.5234 49.2281C60.2905 49.2281 64.155 47.727 64.155 52.6057Z" fill="#AF8200"/>
<ellipse cx="55.5234" cy="51.1044" rx="8.63161" ry="3.37759" fill="url(#paint76_linear_65_586)"/>
<path d="M50.6446 67.6172C50.6446 69.4825 46.7801 70.9947 42.013 70.9947C37.2459 70.9947 33.3814 69.4825 33.3814 67.6172C33.3814 62.7385 37.2459 64.2396 42.013 64.2396C46.7801 64.2396 50.6446 62.7385 50.6446 67.6172Z" fill="#AF8200"/>
<ellipse cx="42.013" cy="66.1161" rx="8.63161" ry="3.37759" fill="url(#paint77_linear_65_586)"/>
<path d="M50.6446 64.615C50.6446 66.4803 46.7801 67.9925 42.013 67.9925C37.2459 67.9925 33.3814 66.4803 33.3814 64.615C33.3814 59.7363 37.2459 61.2374 42.013 61.2374C46.7801 61.2374 50.6446 59.7363 50.6446 64.615Z" fill="#AF8200"/>
<ellipse cx="42.013" cy="63.1137" rx="8.63161" ry="3.37759" fill="url(#paint78_linear_65_586)"/>
<path d="M50.6446 61.6125C50.6446 63.4779 46.7801 64.9901 42.013 64.9901C37.2459 64.9901 33.3814 63.4779 33.3814 61.6125C33.3814 56.7338 37.2459 58.2349 42.013 58.2349C46.7801 58.2349 50.6446 56.7338 50.6446 61.6125Z" fill="#AF8200"/>
<ellipse cx="42.013" cy="60.1112" rx="8.63161" ry="3.37759" fill="url(#paint79_linear_65_586)"/>
<path d="M50.6446 58.6103C50.6446 60.4757 46.7801 61.9879 42.013 61.9879C37.2459 61.9879 33.3814 60.4757 33.3814 58.6103C33.3814 53.7316 37.2459 55.2327 42.013 55.2327C46.7801 55.2327 50.6446 53.7316 50.6446 58.6103Z" fill="#AF8200"/>
<ellipse cx="42.013" cy="57.109" rx="8.63161" ry="3.37759" fill="url(#paint80_linear_65_586)"/>
<path d="M50.6446 55.6079C50.6446 57.4733 46.7801 58.9855 42.013 58.9855C37.2459 58.9855 33.3814 57.4733 33.3814 55.6079C33.3814 50.7292 37.2459 52.2303 42.013 52.2303C46.7801 52.2303 50.6446 50.7292 50.6446 55.6079Z" fill="#AF8200"/>
<ellipse cx="42.013" cy="54.1066" rx="8.63161" ry="3.37759" fill="url(#paint81_linear_65_586)"/>
<path d="M50.6446 52.6057C50.6446 54.4711 46.7801 55.9833 42.013 55.9833C37.2459 55.9833 33.3814 54.4711 33.3814 52.6057C33.3814 47.727 37.2459 49.2281 42.013 49.2281C46.7801 49.2281 50.6446 47.727 50.6446 52.6057Z" fill="#AF8200"/>
<ellipse cx="42.013" cy="51.1044" rx="8.63161" ry="3.37759" fill="url(#paint82_linear_65_586)"/>
<path d="M50.6446 49.6032C50.6446 51.4686 46.7801 52.9808 42.013 52.9808C37.2459 52.9808 33.3814 51.4686 33.3814 49.6032C33.3814 44.7245 37.2459 46.2257 42.013 46.2257C46.7801 46.2257 50.6446 44.7245 50.6446 49.6032Z" fill="#AF8200"/>
<ellipse cx="42.013" cy="48.1022" rx="8.63161" ry="3.37759" fill="url(#paint83_linear_65_586)"/>
<path d="M50.6446 46.601C50.6446 48.4664 46.7801 49.9786 42.013 49.9786C37.2459 49.9786 33.3814 48.4664 33.3814 46.601C33.3814 41.7223 37.2459 43.2235 42.013 43.2235C46.7801 43.2235 50.6446 41.7223 50.6446 46.601Z" fill="#AF8200"/>
<ellipse cx="42.013" cy="45.1" rx="8.63161" ry="3.37759" fill="url(#paint84_linear_65_586)"/>
<path d="M89.2322 20.9509L-3.05176e-05 20.9509L7.96713 2.62645L81.265 2.62646L89.2322 20.9509Z" fill="#63331E"/>
<path d="M83.8575 17.9084L5.5408 17.9083L8.95981 10.9981L80.4385 10.9983L83.8575 17.9084Z" fill="#9F451F"/>
<path d="M80.0185 7.92676L9.37986 7.92675L11.7236 2.55208L77.6747 2.55209L80.0185 7.92676Z" fill="#9F451F"/>
<rect x="12.2515" y="2.10059" width="19.9211" height="5.45592" rx="2" transform="rotate(108.462 12.2515 2.10059)" fill="#FFA723"/>
<rect x="81.1264" width="20.5977" height="5.45592" rx="2" transform="rotate(68.52 81.1264 0)" fill="#FFA723"/>
<rect x="0.166168" y="16.3728" width="89.8339" height="5.37468" rx="1" fill="#FFA723"/>
<rect x="47.0026" y="1.0166" width="19.9631" height="5.37468" rx="2" transform="rotate(90 47.0026 1.0166)" fill="#FFA723"/>
<rect x="47.9439" y="13.458" width="11.7757" height="7.57009" rx="2" transform="rotate(90 47.9439 13.458)" fill="#D98200"/>
<rect x="47.1028" y="14.2991" width="10.0935" height="5.88785" rx="2" transform="rotate(90 47.1028 14.2991)" fill="#FFAB2E"/>
<path d="M2.30347 56.8181H88.2983L80.6202 92.9052H9.98158L2.30347 56.8181Z" fill="#63331E"/>
<path d="M8.22659 60.8325L81.6074 60.8326L80.2363 67.7429L9.59768 67.7428L8.22659 60.8325Z" fill="#9F451F"/>
<path d="M8.22659 70.8872L81.6074 70.8873L80.2363 77.7976L9.59768 77.7975L8.22659 70.8872Z" fill="#9F451F"/>
<path d="M8.22659 80.8689L81.6074 80.869L80.2363 87.7793L9.59768 87.7792L8.22659 80.8689Z" fill="#9F451F"/>
<rect x="0.767822" y="56.2988" width="88.2983" height="6.9103" rx="2" fill="#FFA723"/>
<rect x="6.91031" y="86.7627" width="76.0133" height="6.9103" rx="2" fill="#FFA723"/>
<rect x="8.32755" y="57.8345" width="33.4182" height="6.9103" rx="2" transform="rotate(79.3804 8.32755 57.8345)" fill="#FFA723"/>
<rect x="88.2358" y="59.334" width="33.4182" height="6.9103" rx="2" transform="rotate(100.692 88.2358 59.334)" fill="#FFA723"/>
<defs>
<linearGradient id="paint0_linear_65_586" x1="46.6952" y1="37.9153" x2="46.6952" y2="43.6219" gradientUnits="userSpaceOnUse">
<stop stop-color="#FFEBAF"/>
<stop offset="0.59375" stop-color="#FCCD47"/>
<stop offset="1" stop-color="#A9810F"/>
</linearGradient>
<linearGradient id="paint1_linear_65_586" x1="46.6952" y1="35.3789" x2="46.6952" y2="41.0855" gradientUnits="userSpaceOnUse">
<stop stop-color="#FFEBAF"/>
<stop offset="0.59375" stop-color="#FCCD47"/>
<stop offset="1" stop-color="#A9810F"/>
</linearGradient>
<linearGradient id="paint2_linear_65_586" x1="46.6952" y1="32.843" x2="46.6952" y2="38.5496" gradientUnits="userSpaceOnUse">
<stop stop-color="#FFEBAF"/>
<stop offset="0.59375" stop-color="#FCCD47"/>
<stop offset="1" stop-color="#A9810F"/>
</linearGradient>
<linearGradient id="paint3_linear_65_586" x1="46.6952" y1="30.3062" x2="46.6952" y2="36.0128" gradientUnits="userSpaceOnUse">
<stop stop-color="#FFEBAF"/>
<stop offset="0.59375" stop-color="#FCCD47"/>
<stop offset="1" stop-color="#A9810F"/>
</linearGradient>
<linearGradient id="paint4_linear_65_586" x1="46.6952" y1="27.7703" x2="46.6952" y2="33.4769" gradientUnits="userSpaceOnUse">
<stop stop-color="#FFEBAF"/>
<stop offset="0.59375" stop-color="#FCCD47"/>
<stop offset="1" stop-color="#A9810F"/>
</linearGradient>
<linearGradient id="paint5_linear_65_586" x1="70.1558" y1="37.915" x2="70.1558" y2="43.6217" gradientUnits="userSpaceOnUse">
<stop stop-color="#FFEBAF"/>
<stop offset="0.59375" stop-color="#FCCD47"/>
<stop offset="1" stop-color="#A9810F"/>
</linearGradient>
<linearGradient id="paint6_linear_65_586" x1="70.1558" y1="35.3787" x2="70.1558" y2="41.0853" gradientUnits="userSpaceOnUse">
<stop stop-color="#FFEBAF"/>
<stop offset="0.59375" stop-color="#FCCD47"/>
<stop offset="1" stop-color="#A9810F"/>
</linearGradient>
<linearGradient id="paint7_linear_65_586" x1="70.1558" y1="32.8428" x2="70.1558" y2="38.5494" gradientUnits="userSpaceOnUse">
<stop stop-color="#FFEBAF"/>
<stop offset="0.59375" stop-color="#FCCD47"/>
<stop offset="1" stop-color="#A9810F"/>
</linearGradient>
<linearGradient id="paint8_linear_65_586" x1="70.1557" y1="30.3062" x2="70.1557" y2="36.0128" gradientUnits="userSpaceOnUse">
<stop stop-color="#FFEBAF"/>
<stop offset="0.59375" stop-color="#FCCD47"/>
<stop offset="1" stop-color="#A9810F"/>
</linearGradient>
<linearGradient id="paint9_linear_65_586" x1="58.7425" y1="42.9875" x2="58.7425" y2="48.6942" gradientUnits="userSpaceOnUse">
<stop stop-color="#FFEBAF"/>
<stop offset="0.59375" stop-color="#FCCD47"/>
<stop offset="1" stop-color="#A9810F"/>
</linearGradient>
<linearGradient id="paint10_linear_65_586" x1="58.7425" y1="40.4514" x2="58.7425" y2="46.158" gradientUnits="userSpaceOnUse">
<stop stop-color="#FFEBAF"/>
<stop offset="0.59375" stop-color="#FCCD47"/>
<stop offset="1" stop-color="#A9810F"/>
</linearGradient>
<linearGradient id="paint11_linear_65_586" x1="58.7425" y1="37.915" x2="58.7425" y2="43.6217" gradientUnits="userSpaceOnUse">
<stop stop-color="#FFEBAF"/>
<stop offset="0.59375" stop-color="#FCCD47"/>
<stop offset="1" stop-color="#A9810F"/>
</linearGradient>
<linearGradient id="paint12_linear_65_586" x1="58.7425" y1="35.3787" x2="58.7425" y2="41.0853" gradientUnits="userSpaceOnUse">
<stop stop-color="#FFEBAF"/>
<stop offset="0.59375" stop-color="#FCCD47"/>
<stop offset="1" stop-color="#A9810F"/>
</linearGradient>
<linearGradient id="paint13_linear_65_586" x1="58.7425" y1="32.8428" x2="58.7425" y2="38.5494" gradientUnits="userSpaceOnUse">
<stop stop-color="#FFEBAF"/>
<stop offset="0.59375" stop-color="#FCCD47"/>
<stop offset="1" stop-color="#A9810F"/>
</linearGradient>
<linearGradient id="paint14_linear_65_586" x1="58.7425" y1="30.3062" x2="58.7425" y2="36.0128" gradientUnits="userSpaceOnUse">
<stop stop-color="#FFEBAF"/>
<stop offset="0.59375" stop-color="#FCCD47"/>
<stop offset="1" stop-color="#A9810F"/>
</linearGradient>
<linearGradient id="paint15_linear_65_586" x1="58.7425" y1="27.7703" x2="58.7425" y2="33.4769" gradientUnits="userSpaceOnUse">
<stop stop-color="#FFEBAF"/>
<stop offset="0.59375" stop-color="#FCCD47"/>
<stop offset="1" stop-color="#A9810F"/>
</linearGradient>
<linearGradient id="paint16_linear_65_586" x1="58.7425" y1="25.2336" x2="58.7425" y2="30.9403" gradientUnits="userSpaceOnUse">
<stop stop-color="#FFEBAF"/>
<stop offset="0.59375" stop-color="#FCCD47"/>
<stop offset="1" stop-color="#A9810F"/>
</linearGradient>
<linearGradient id="paint17_linear_65_586" x1="20.8511" y1="40.6147" x2="20.8511" y2="46.4007" gradientUnits="userSpaceOnUse">
<stop stop-color="#FFEBAF"/>
<stop offset="0.59375" stop-color="#FCCD47"/>
<stop offset="1" stop-color="#A9810F"/>
</linearGradient>
<linearGradient id="paint18_linear_65_586" x1="20.8511" y1="38.0432" x2="20.8511" y2="43.8291" gradientUnits="userSpaceOnUse">
<stop stop-color="#FFEBAF"/>
<stop offset="0.59375" stop-color="#FCCD47"/>
<stop offset="1" stop-color="#A9810F"/>
</linearGradient>
<linearGradient id="paint19_linear_65_586" x1="20.8511" y1="35.4714" x2="20.8511" y2="41.2573" gradientUnits="userSpaceOnUse">
<stop stop-color="#FFEBAF"/>
<stop offset="0.59375" stop-color="#FCCD47"/>
<stop offset="1" stop-color="#A9810F"/>
</linearGradient>
<linearGradient id="paint20_linear_65_586" x1="20.8511" y1="32.9001" x2="20.8511" y2="38.6861" gradientUnits="userSpaceOnUse">
<stop stop-color="#FFEBAF"/>
<stop offset="0.59375" stop-color="#FCCD47"/>
<stop offset="1" stop-color="#A9810F"/>
</linearGradient>
<linearGradient id="paint21_linear_65_586" x1="20.8511" y1="30.3289" x2="20.8511" y2="36.1148" gradientUnits="userSpaceOnUse">
<stop stop-color="#FFEBAF"/>
<stop offset="0.59375" stop-color="#FCCD47"/>
<stop offset="1" stop-color="#A9810F"/>
</linearGradient>
<linearGradient id="paint22_linear_65_586" x1="44.6376" y1="40.6145" x2="44.6376" y2="46.4004" gradientUnits="userSpaceOnUse">
<stop stop-color="#FFEBAF"/>
<stop offset="0.59375" stop-color="#FCCD47"/>
<stop offset="1" stop-color="#A9810F"/>
</linearGradient>
<linearGradient id="paint23_linear_65_586" x1="44.6376" y1="38.0432" x2="44.6376" y2="43.8291" gradientUnits="userSpaceOnUse">
<stop stop-color="#FFEBAF"/>
<stop offset="0.59375" stop-color="#FCCD47"/>
<stop offset="1" stop-color="#A9810F"/>
</linearGradient>
<linearGradient id="paint24_linear_65_586" x1="44.6376" y1="35.4714" x2="44.6376" y2="41.2573" gradientUnits="userSpaceOnUse">
<stop stop-color="#FFEBAF"/>
<stop offset="0.59375" stop-color="#FCCD47"/>
<stop offset="1" stop-color="#A9810F"/>
</linearGradient>
<linearGradient id="paint25_linear_65_586" x1="44.6376" y1="32.9001" x2="44.6376" y2="38.6861" gradientUnits="userSpaceOnUse">
<stop stop-color="#FFEBAF"/>
<stop offset="0.59375" stop-color="#FCCD47"/>
<stop offset="1" stop-color="#A9810F"/>
</linearGradient>
<linearGradient id="paint26_linear_65_586" x1="33.0658" y1="45.7578" x2="33.0658" y2="51.5437" gradientUnits="userSpaceOnUse">
<stop stop-color="#FFEBAF"/>
<stop offset="0.59375" stop-color="#FCCD47"/>
<stop offset="1" stop-color="#A9810F"/>
</linearGradient>
<linearGradient id="paint27_linear_65_586" x1="33.0658" y1="43.1863" x2="33.0658" y2="48.9722" gradientUnits="userSpaceOnUse">
<stop stop-color="#FFEBAF"/>
<stop offset="0.59375" stop-color="#FCCD47"/>
<stop offset="1" stop-color="#A9810F"/>
</linearGradient>
<linearGradient id="paint28_linear_65_586" x1="33.0658" y1="40.6147" x2="33.0658" y2="46.4007" gradientUnits="userSpaceOnUse">
<stop stop-color="#FFEBAF"/>
<stop offset="0.59375" stop-color="#FCCD47"/>
<stop offset="1" stop-color="#A9810F"/>
</linearGradient>
<linearGradient id="paint29_linear_65_586" x1="33.0658" y1="38.0432" x2="33.0658" y2="43.8291" gradientUnits="userSpaceOnUse">
<stop stop-color="#FFEBAF"/>
<stop offset="0.59375" stop-color="#FCCD47"/>
<stop offset="1" stop-color="#A9810F"/>
</linearGradient>
<linearGradient id="paint30_linear_65_586" x1="33.0658" y1="35.4714" x2="33.0658" y2="41.2573" gradientUnits="userSpaceOnUse">
<stop stop-color="#FFEBAF"/>
<stop offset="0.59375" stop-color="#FCCD47"/>
<stop offset="1" stop-color="#A9810F"/>
</linearGradient>
<linearGradient id="paint31_linear_65_586" x1="33.0658" y1="32.9001" x2="33.0658" y2="38.6861" gradientUnits="userSpaceOnUse">
<stop stop-color="#FFEBAF"/>
<stop offset="0.59375" stop-color="#FCCD47"/>
<stop offset="1" stop-color="#A9810F"/>
</linearGradient>
<linearGradient id="paint32_linear_65_586" x1="33.0658" y1="30.3289" x2="33.0658" y2="36.1148" gradientUnits="userSpaceOnUse">
<stop stop-color="#FFEBAF"/>
<stop offset="0.59375" stop-color="#FCCD47"/>
<stop offset="1" stop-color="#A9810F"/>
</linearGradient>
<linearGradient id="paint33_linear_65_586" x1="33.0658" y1="27.7571" x2="33.0658" y2="33.543" gradientUnits="userSpaceOnUse">
<stop stop-color="#FFEBAF"/>
<stop offset="0.59375" stop-color="#FCCD47"/>
<stop offset="1" stop-color="#A9810F"/>
</linearGradient>
<linearGradient id="paint34_linear_65_586" x1="17.8454" y1="51.5566" x2="17.8454" y2="58.3118" gradientUnits="userSpaceOnUse">
<stop stop-color="#FFEBAF"/>
<stop offset="0.59375" stop-color="#FCCD47"/>
<stop offset="1" stop-color="#A9810F"/>
</linearGradient>
<linearGradient id="paint35_linear_65_586" x1="17.8454" y1="48.5544" x2="17.8454" y2="55.3096" gradientUnits="userSpaceOnUse">
<stop stop-color="#FFEBAF"/>
<stop offset="0.59375" stop-color="#FCCD47"/>
<stop offset="1" stop-color="#A9810F"/>
</linearGradient>
<linearGradient id="paint36_linear_65_586" x1="17.8454" y1="45.5522" x2="17.8454" y2="52.3074" gradientUnits="userSpaceOnUse">
<stop stop-color="#FFEBAF"/>
<stop offset="0.59375" stop-color="#FCCD47"/>
<stop offset="1" stop-color="#A9810F"/>
</linearGradient>
<linearGradient id="paint37_linear_65_586" x1="17.8454" y1="42.5498" x2="17.8454" y2="49.305" gradientUnits="userSpaceOnUse">
<stop stop-color="#FFEBAF"/>
<stop offset="0.59375" stop-color="#FCCD47"/>
<stop offset="1" stop-color="#A9810F"/>
</linearGradient>
<linearGradient id="paint38_linear_65_586" x1="17.8454" y1="39.5476" x2="17.8454" y2="46.3028" gradientUnits="userSpaceOnUse">
<stop stop-color="#FFEBAF"/>
<stop offset="0.59375" stop-color="#FCCD47"/>
<stop offset="1" stop-color="#A9810F"/>
</linearGradient>
<linearGradient id="paint39_linear_65_586" x1="47.2989" y1="51.5566" x2="47.2989" y2="58.3118" gradientUnits="userSpaceOnUse">
<stop stop-color="#FFEBAF"/>
<stop offset="0.59375" stop-color="#FCCD47"/>
<stop offset="1" stop-color="#A9810F"/>
</linearGradient>
<linearGradient id="paint40_linear_65_586" x1="47.2989" y1="48.5544" x2="47.2989" y2="55.3096" gradientUnits="userSpaceOnUse">
<stop stop-color="#FFEBAF"/>
<stop offset="0.59375" stop-color="#FCCD47"/>
<stop offset="1" stop-color="#A9810F"/>
</linearGradient>
<linearGradient id="paint41_linear_65_586" x1="47.2989" y1="45.5522" x2="47.2989" y2="52.3074" gradientUnits="userSpaceOnUse">
<stop stop-color="#FFEBAF"/>
<stop offset="0.59375" stop-color="#FCCD47"/>
<stop offset="1" stop-color="#A9810F"/>
</linearGradient>
<linearGradient id="paint42_linear_65_586" x1="47.2989" y1="42.5498" x2="47.2989" y2="49.305" gradientUnits="userSpaceOnUse">
<stop stop-color="#FFEBAF"/>
<stop offset="0.59375" stop-color="#FCCD47"/>
<stop offset="1" stop-color="#A9810F"/>
</linearGradient>
<linearGradient id="paint43_linear_65_586" x1="33.7885" y1="57.5613" x2="33.7885" y2="64.3165" gradientUnits="userSpaceOnUse">
<stop stop-color="#FFEBAF"/>
<stop offset="0.59375" stop-color="#FCCD47"/>
<stop offset="1" stop-color="#A9810F"/>
</linearGradient>
<linearGradient id="paint44_linear_65_586" x1="33.7885" y1="54.5591" x2="33.7885" y2="61.3143" gradientUnits="userSpaceOnUse">
<stop stop-color="#FFEBAF"/>
<stop offset="0.59375" stop-color="#FCCD47"/>
<stop offset="1" stop-color="#A9810F"/>
</linearGradient>
<linearGradient id="paint45_linear_65_586" x1="33.7885" y1="51.5566" x2="33.7885" y2="58.3118" gradientUnits="userSpaceOnUse">
<stop stop-color="#FFEBAF"/>
<stop offset="0.59375" stop-color="#FCCD47"/>
<stop offset="1" stop-color="#A9810F"/>
</linearGradient>
<linearGradient id="paint46_linear_65_586" x1="33.7885" y1="48.5544" x2="33.7885" y2="55.3096" gradientUnits="userSpaceOnUse">
<stop stop-color="#FFEBAF"/>
<stop offset="0.59375" stop-color="#FCCD47"/>
<stop offset="1" stop-color="#A9810F"/>
</linearGradient>
<linearGradient id="paint47_linear_65_586" x1="33.7885" y1="45.5522" x2="33.7885" y2="52.3074" gradientUnits="userSpaceOnUse">
<stop stop-color="#FFEBAF"/>
<stop offset="0.59375" stop-color="#FCCD47"/>
<stop offset="1" stop-color="#A9810F"/>
</linearGradient>
<linearGradient id="paint48_linear_65_586" x1="33.7885" y1="42.5498" x2="33.7885" y2="49.305" gradientUnits="userSpaceOnUse">
<stop stop-color="#FFEBAF"/>
<stop offset="0.59375" stop-color="#FCCD47"/>
<stop offset="1" stop-color="#A9810F"/>
</linearGradient>
<linearGradient id="paint49_linear_65_586" x1="33.7885" y1="39.5476" x2="33.7885" y2="46.3028" gradientUnits="userSpaceOnUse">
<stop stop-color="#FFEBAF"/>
<stop offset="0.59375" stop-color="#FCCD47"/>
<stop offset="1" stop-color="#A9810F"/>
</linearGradient>
<linearGradient id="paint50_linear_65_586" x1="33.7885" y1="36.5452" x2="33.7885" y2="43.3003" gradientUnits="userSpaceOnUse">
<stop stop-color="#FFEBAF"/>
<stop offset="0.59375" stop-color="#FCCD47"/>
<stop offset="1" stop-color="#A9810F"/>
</linearGradient>
<linearGradient id="paint51_linear_65_586" x1="46.2442" y1="49.9248" x2="46.2442" y2="56.4938" gradientUnits="userSpaceOnUse">
<stop stop-color="#FFEBAF"/>
<stop offset="0.59375" stop-color="#FCCD47"/>
<stop offset="1" stop-color="#A9810F"/>
</linearGradient>
<linearGradient id="paint52_linear_65_586" x1="46.2442" y1="47.0054" x2="46.2442" y2="53.5744" gradientUnits="userSpaceOnUse">
<stop stop-color="#FFEBAF"/>
<stop offset="0.59375" stop-color="#FCCD47"/>
<stop offset="1" stop-color="#A9810F"/>
</linearGradient>
<linearGradient id="paint53_linear_65_586" x1="46.2442" y1="44.0857" x2="46.2442" y2="50.6547" gradientUnits="userSpaceOnUse">
<stop stop-color="#FFEBAF"/>
<stop offset="0.59375" stop-color="#FCCD47"/>
<stop offset="1" stop-color="#A9810F"/>
</linearGradient>
<linearGradient id="paint54_linear_65_586" x1="46.2442" y1="41.166" x2="46.2442" y2="47.735" gradientUnits="userSpaceOnUse">
<stop stop-color="#FFEBAF"/>
<stop offset="0.59375" stop-color="#FCCD47"/>
<stop offset="1" stop-color="#A9810F"/>
</linearGradient>
<linearGradient id="paint55_linear_65_586" x1="46.2442" y1="38.2466" x2="46.2442" y2="44.8156" gradientUnits="userSpaceOnUse">
<stop stop-color="#FFEBAF"/>
<stop offset="0.59375" stop-color="#FCCD47"/>
<stop offset="1" stop-color="#A9810F"/>
</linearGradient>
<linearGradient id="paint56_linear_65_586" x1="73.2501" y1="49.9246" x2="73.2501" y2="56.4935" gradientUnits="userSpaceOnUse">
<stop stop-color="#FFEBAF"/>
<stop offset="0.59375" stop-color="#FCCD47"/>
<stop offset="1" stop-color="#A9810F"/>
</linearGradient>
<linearGradient id="paint57_linear_65_586" x1="73.2501" y1="47.0054" x2="73.2501" y2="53.5744" gradientUnits="userSpaceOnUse">
<stop stop-color="#FFEBAF"/>
<stop offset="0.59375" stop-color="#FCCD47"/>
<stop offset="1" stop-color="#A9810F"/>
</linearGradient>
<linearGradient id="paint58_linear_65_586" x1="73.2501" y1="44.0854" x2="73.2501" y2="50.6544" gradientUnits="userSpaceOnUse">
<stop stop-color="#FFEBAF"/>
<stop offset="0.59375" stop-color="#FCCD47"/>
<stop offset="1" stop-color="#A9810F"/>
</linearGradient>
<linearGradient id="paint59_linear_65_586" x1="73.25" y1="41.166" x2="73.25" y2="47.735" gradientUnits="userSpaceOnUse">
<stop stop-color="#FFEBAF"/>
<stop offset="0.59375" stop-color="#FCCD47"/>
<stop offset="1" stop-color="#A9810F"/>
</linearGradient>
<linearGradient id="paint60_linear_65_586" x1="60.1121" y1="55.7637" x2="60.1121" y2="62.3327" gradientUnits="userSpaceOnUse">
<stop stop-color="#FFEBAF"/>
<stop offset="0.59375" stop-color="#FCCD47"/>
<stop offset="1" stop-color="#A9810F"/>
</linearGradient>
<linearGradient id="paint61_linear_65_586" x1="60.1121" y1="52.8442" x2="60.1121" y2="59.4132" gradientUnits="userSpaceOnUse">
<stop stop-color="#FFEBAF"/>
<stop offset="0.59375" stop-color="#FCCD47"/>
<stop offset="1" stop-color="#A9810F"/>
</linearGradient>
<linearGradient id="paint62_linear_65_586" x1="60.1121" y1="49.9246" x2="60.1121" y2="56.4935" gradientUnits="userSpaceOnUse">
<stop stop-color="#FFEBAF"/>
<stop offset="0.59375" stop-color="#FCCD47"/>
<stop offset="1" stop-color="#A9810F"/>
</linearGradient>
<linearGradient id="paint63_linear_65_586" x1="60.1121" y1="47.0054" x2="60.1121" y2="53.5744" gradientUnits="userSpaceOnUse">
<stop stop-color="#FFEBAF"/>
<stop offset="0.59375" stop-color="#FCCD47"/>
<stop offset="1" stop-color="#A9810F"/>
</linearGradient>
<linearGradient id="paint64_linear_65_586" x1="60.1121" y1="44.0854" x2="60.1121" y2="50.6544" gradientUnits="userSpaceOnUse">
<stop stop-color="#FFEBAF"/>
<stop offset="0.59375" stop-color="#FCCD47"/>
<stop offset="1" stop-color="#A9810F"/>
</linearGradient>
<linearGradient id="paint65_linear_65_586" x1="60.1121" y1="41.166" x2="60.1121" y2="47.735" gradientUnits="userSpaceOnUse">
<stop stop-color="#FFEBAF"/>
<stop offset="0.59375" stop-color="#FCCD47"/>
<stop offset="1" stop-color="#A9810F"/>
</linearGradient>
<linearGradient id="paint66_linear_65_586" x1="60.1121" y1="38.2463" x2="60.1121" y2="44.8153" gradientUnits="userSpaceOnUse">
<stop stop-color="#FFEBAF"/>
<stop offset="0.59375" stop-color="#FCCD47"/>
<stop offset="1" stop-color="#A9810F"/>
</linearGradient>
<linearGradient id="paint67_linear_65_586" x1="60.1121" y1="35.3269" x2="60.1121" y2="41.8959" gradientUnits="userSpaceOnUse">
<stop stop-color="#FFEBAF"/>
<stop offset="0.59375" stop-color="#FCCD47"/>
<stop offset="1" stop-color="#A9810F"/>
</linearGradient>
<linearGradient id="paint68_linear_65_586" x1="27.7521" y1="56.7339" x2="27.7521" y2="63.4891" gradientUnits="userSpaceOnUse">
<stop stop-color="#FFEBAF"/>
<stop offset="0.59375" stop-color="#FCCD47"/>
<stop offset="1" stop-color="#A9810F"/>
</linearGradient>
<linearGradient id="paint69_linear_65_586" x1="27.7521" y1="53.7317" x2="27.7521" y2="60.4869" gradientUnits="userSpaceOnUse">
<stop stop-color="#FFEBAF"/>
<stop offset="0.59375" stop-color="#FCCD47"/>
<stop offset="1" stop-color="#A9810F"/>
</linearGradient>
<linearGradient id="paint70_linear_65_586" x1="27.7521" y1="50.7292" x2="27.7521" y2="57.4844" gradientUnits="userSpaceOnUse">
<stop stop-color="#FFEBAF"/>
<stop offset="0.59375" stop-color="#FCCD47"/>
<stop offset="1" stop-color="#A9810F"/>
</linearGradient>
<linearGradient id="paint71_linear_65_586" x1="27.7521" y1="47.7271" x2="27.7521" y2="54.4822" gradientUnits="userSpaceOnUse">
<stop stop-color="#FFEBAF"/>
<stop offset="0.59375" stop-color="#FCCD47"/>
<stop offset="1" stop-color="#A9810F"/>
</linearGradient>
<linearGradient id="paint72_linear_65_586" x1="27.7521" y1="44.7249" x2="27.7521" y2="51.48" gradientUnits="userSpaceOnUse">
<stop stop-color="#FFEBAF"/>
<stop offset="0.59375" stop-color="#FCCD47"/>
<stop offset="1" stop-color="#A9810F"/>
</linearGradient>
<linearGradient id="paint73_linear_65_586" x1="55.5234" y1="56.7336" x2="55.5234" y2="63.4888" gradientUnits="userSpaceOnUse">
<stop stop-color="#FFEBAF"/>
<stop offset="0.59375" stop-color="#FCCD47"/>
<stop offset="1" stop-color="#A9810F"/>
</linearGradient>
<linearGradient id="paint74_linear_65_586" x1="55.5234" y1="53.7314" x2="55.5234" y2="60.4866" gradientUnits="userSpaceOnUse">
<stop stop-color="#FFEBAF"/>
<stop offset="0.59375" stop-color="#FCCD47"/>
<stop offset="1" stop-color="#A9810F"/>
</linearGradient>
<linearGradient id="paint75_linear_65_586" x1="55.5234" y1="50.729" x2="55.5234" y2="57.4842" gradientUnits="userSpaceOnUse">
<stop stop-color="#FFEBAF"/>
<stop offset="0.59375" stop-color="#FCCD47"/>
<stop offset="1" stop-color="#A9810F"/>
</linearGradient>
<linearGradient id="paint76_linear_65_586" x1="55.5234" y1="47.7268" x2="55.5234" y2="54.482" gradientUnits="userSpaceOnUse">
<stop stop-color="#FFEBAF"/>
<stop offset="0.59375" stop-color="#FCCD47"/>
<stop offset="1" stop-color="#A9810F"/>
</linearGradient>
<linearGradient id="paint77_linear_65_586" x1="42.013" y1="62.7385" x2="42.013" y2="69.4937" gradientUnits="userSpaceOnUse">
<stop stop-color="#FFEBAF"/>
<stop offset="0.59375" stop-color="#FCCD47"/>
<stop offset="1" stop-color="#A9810F"/>
</linearGradient>
<linearGradient id="paint78_linear_65_586" x1="42.013" y1="59.7361" x2="42.013" y2="66.4913" gradientUnits="userSpaceOnUse">
<stop stop-color="#FFEBAF"/>
<stop offset="0.59375" stop-color="#FCCD47"/>
<stop offset="1" stop-color="#A9810F"/>
</linearGradient>
<linearGradient id="paint79_linear_65_586" x1="42.013" y1="56.7336" x2="42.013" y2="63.4888" gradientUnits="userSpaceOnUse">
<stop stop-color="#FFEBAF"/>
<stop offset="0.59375" stop-color="#FCCD47"/>
<stop offset="1" stop-color="#A9810F"/>
</linearGradient>
<linearGradient id="paint80_linear_65_586" x1="42.013" y1="53.7314" x2="42.013" y2="60.4866" gradientUnits="userSpaceOnUse">
<stop stop-color="#FFEBAF"/>
<stop offset="0.59375" stop-color="#FCCD47"/>
<stop offset="1" stop-color="#A9810F"/>
</linearGradient>
<linearGradient id="paint81_linear_65_586" x1="42.013" y1="50.729" x2="42.013" y2="57.4842" gradientUnits="userSpaceOnUse">
<stop stop-color="#FFEBAF"/>
<stop offset="0.59375" stop-color="#FCCD47"/>
<stop offset="1" stop-color="#A9810F"/>
</linearGradient>
<linearGradient id="paint82_linear_65_586" x1="42.013" y1="47.7268" x2="42.013" y2="54.482" gradientUnits="userSpaceOnUse">
<stop stop-color="#FFEBAF"/>
<stop offset="0.59375" stop-color="#FCCD47"/>
<stop offset="1" stop-color="#A9810F"/>
</linearGradient>
<linearGradient id="paint83_linear_65_586" x1="42.013" y1="44.7246" x2="42.013" y2="51.4798" gradientUnits="userSpaceOnUse">
<stop stop-color="#FFEBAF"/>
<stop offset="0.59375" stop-color="#FCCD47"/>
<stop offset="1" stop-color="#A9810F"/>
</linearGradient>
<linearGradient id="paint84_linear_65_586" x1="42.013" y1="41.7224" x2="42.013" y2="48.4776" gradientUnits="userSpaceOnUse">
<stop stop-color="#FFEBAF"/>
<stop offset="0.59375" stop-color="#FCCD47"/>
<stop offset="1" stop-color="#A9810F"/>
</linearGradient>
</defs>
</svg>
