<svg width="50" height="50" viewBox="0 0 50 50" fill="none" xmlns="http://www.w3.org/2000/svg">
<path d="M27.6482 19.8481H27.6092V19.836L27.6482 19.8481Z" fill="#D9D9D9"/>
<path fill-rule="evenodd" clip-rule="evenodd" d="M25 49.6788C38.5284 49.6788 49.4954 38.7118 49.4954 25.1834C49.4954 11.655 38.5284 0.687988 25 0.687988C11.4715 0.687988 0.504578 11.655 0.504578 25.1834C0.504578 38.7118 11.4715 49.6788 25 49.6788ZM32.4382 15.3307V9.41129H26.6746C23.5344 9.41129 20.9888 11.9569 20.9888 15.097V15.3307H20.9929C20.9902 15.3823 20.9888 15.4342 20.9888 15.4865V19.8481H17.6397V25.3002H20.9888V41.3449H27.6092V25.3002H31.893L32.4382 19.8481H27.6482V16.1096C27.6482 15.8808 27.7743 15.4601 28.2382 15.3307H32.4382Z" fill="#D9D9D9"/>
</svg>
