<svg width="49" height="50" viewBox="0 0 49 50" fill="none" xmlns="http://www.w3.org/2000/svg">
<path fill-rule="evenodd" clip-rule="evenodd" d="M24.4954 49.3119C38.0239 49.3119 48.9908 38.3449 48.9908 24.8165C48.9908 11.288 38.0239 0.321045 24.4954 0.321045C10.967 0.321045 0 11.288 0 24.8165C0 38.3449 10.967 49.3119 24.4954 49.3119ZM24.9642 39.2325C32.9259 39.2325 39.3802 32.7782 39.3802 24.8165C39.3802 23.9364 39.3013 23.0746 39.1502 22.238H24.847V27.7465H33.2543C32.0475 31.1606 28.7915 33.6066 24.9642 33.6066C20.1095 33.6066 16.174 29.6711 16.174 24.8164C16.174 19.9617 20.1095 16.0262 24.9642 16.0262C27.1699 16.0262 29.1859 16.8386 30.7292 18.1804L34.546 14.0456C31.999 11.7782 28.6425 10.4006 24.9642 10.4006C17.0025 10.4006 10.5483 16.8548 10.5483 24.8165C10.5483 32.7782 17.0025 39.2325 24.9642 39.2325Z" fill="#D9D9D9"/>
</svg>
