<svg width="49" height="50" viewBox="0 0 49 50" fill="none" xmlns="http://www.w3.org/2000/svg">
<path fill-rule="evenodd" clip-rule="evenodd" d="M24.5046 0.687988C10.9761 0.687988 0.00915527 11.655 0.00915527 25.1834C0.00915527 38.7118 10.9761 49.6788 24.5046 49.6788C38.033 49.6788 49 38.7118 49 25.1834C49 11.655 38.033 0.687988 24.5046 0.687988ZM18.3087 34.555L18.8011 28.6241L30.401 18.0381C30.5766 17.8779 30.5831 17.6029 30.4154 17.4345C30.2785 17.2971 30.0654 17.2727 29.9013 17.3757L16.0796 26.0475C15.3997 26.4741 14.5705 26.5755 13.8117 26.3154C12.1891 25.7593 9.39865 24.7916 7.72468 24.2103C7.24842 24.0449 7.23105 23.3776 7.70052 23.1937C12.5829 21.2811 29.1274 14.8006 33.4332 13.1197C34.4267 12.757 36.3054 12.6845 35.8719 15.2957C35.4383 17.907 32.9816 29.4402 31.8074 34.8803C31.6267 35.787 30.7777 37.3284 28.8268 36.2404C26.8758 35.1523 24.0397 32.7043 22.8655 31.6162L19.2301 35.005C19.1285 35.0997 18.9949 35.1523 18.8563 35.1523C18.5348 35.1523 18.282 34.8765 18.3087 34.555Z" fill="#D9D9D9"/>
</svg>
